<svg width="23" height="21" viewBox="0 0 23 21" fill="none" xmlns="http://www.w3.org/2000/svg">
<path d="M20.2913 2.61012C19.7805 2.09912 19.1741 1.69376 18.5066 1.4172C17.8392 1.14064 17.1238 0.998291 16.4013 0.998291C15.6788 0.998291 14.9634 1.14064 14.2959 1.4172C13.6285 1.69376 13.022 2.09912 12.5113 2.61012L11.4513 3.67012L10.3913 2.61012C9.3596 1.57842 7.96032 0.998826 6.50129 0.998826C5.04226 0.998826 3.64298 1.57842 2.61129 2.61012C1.5796 3.64181 1 5.04108 1 6.50012C1 7.95915 1.5796 9.35842 2.61129 10.3901L3.67129 11.4501L11.4513 19.2301L19.2313 11.4501L20.2913 10.3901C20.8023 9.87936 21.2076 9.27293 21.4842 8.60547C21.7608 7.93801 21.9031 7.2226 21.9031 6.50012C21.9031 5.77763 21.7608 5.06222 21.4842 4.39476C21.2076 3.7273 20.8023 3.12087 20.2913 2.61012Z" stroke="white" stroke-width="2" stroke-linecap="round" stroke-linejoin="round"/>
</svg>
