<svg width="34" height="34" viewBox="0 0 34 34" fill="none" xmlns="http://www.w3.org/2000/svg">
<path d="M29.75 14.1667C29.75 24.0834 17 32.5834 17 32.5834C17 32.5834 4.25 24.0834 4.25 14.1667C4.25 10.7852 5.5933 7.54222 7.98439 5.15114C10.3755 2.76005 13.6185 1.41675 17 1.41675C20.3815 1.41675 23.6245 2.76005 26.0156 5.15114C28.4067 7.54222 29.75 10.7852 29.75 14.1667Z" fill="#F76060" stroke="black" stroke-width="2.83333" stroke-linecap="round" stroke-linejoin="round"/>
<path d="M17 18.4167C19.3472 18.4167 21.25 16.514 21.25 14.1667C21.25 11.8195 19.3472 9.91675 17 9.91675C14.6528 9.91675 12.75 11.8195 12.75 14.1667C12.75 16.514 14.6528 18.4167 17 18.4167Z" fill="#E9E3E3" stroke="black" stroke-width="2.83333" stroke-linecap="round" stroke-linejoin="round"/>
</svg>
